<?xml version="1.0" encoding="UTF-8"?><svg xmlns="http://www.w3.org/2000/svg" xmlns:xlink="http://www.w3.org/1999/xlink" fill-opacity="1" color-rendering="auto" color-interpolation="auto" text-rendering="auto" stroke="black" stroke-linecap="square" width="703" stroke-miterlimit="10" shape-rendering="auto" stroke-opacity="1" fill="black" stroke-dasharray="none" font-weight="normal" stroke-width="1" height="645" font-family="'Dialog'" font-style="normal" stroke-linejoin="miter" font-size="12px" stroke-dashoffset="0" image-rendering="auto">
  <!--Generated by ySVG 2.6-->
  <defs id="genericDefs"/>
  <g>
    <defs id="defs1">
      <clipPath clipPathUnits="userSpaceOnUse" id="clipPath1">
        <path d="M0 0 L703 0 L703 645 L0 645 L0 0 Z"/>
      </clipPath>
      <clipPath clipPathUnits="userSpaceOnUse" id="clipPath2">
        <path d="M57 1 L760 1 L760 646 L57 646 L57 1 Z"/>
      </clipPath>
      <clipPath clipPathUnits="userSpaceOnUse" id="clipPath3">
        <path d="M232.833 -20.4004 L232.833 682.5996 L-412.167 682.5996 L-412.167 -20.4004 L232.833 -20.4004 Z"/>
      </clipPath>
      <clipPath clipPathUnits="userSpaceOnUse" id="clipPath4">
        <path d="M191.7065 -188.4004 L191.7065 514.5996 L-453.2935 514.5996 L-453.2935 -188.4004 L191.7065 -188.4004 Z"/>
      </clipPath>
      <clipPath clipPathUnits="userSpaceOnUse" id="clipPath5">
        <path d="M191.7065 -272.4004 L191.7065 430.5996 L-453.2935 430.5996 L-453.2935 -272.4004 L191.7065 -272.4004 Z"/>
      </clipPath>
      <clipPath clipPathUnits="userSpaceOnUse" id="clipPath6">
        <path d="M191.7065 -356.4004 L191.7065 346.5996 L-453.2935 346.5996 L-453.2935 -356.4004 L191.7065 -356.4004 Z"/>
      </clipPath>
      <clipPath clipPathUnits="userSpaceOnUse" id="clipPath7">
        <path d="M239.5259 -518.8008 L239.5259 184.1992 L-405.4741 184.1992 L-405.4741 -518.8008 L239.5259 -518.8008 Z"/>
      </clipPath>
      <clipPath clipPathUnits="userSpaceOnUse" id="clipPath8">
        <path d="M591.6255 -30.8008 L591.6255 672.1992 L-53.3745 672.1992 L-53.3745 -30.8008 L591.6255 -30.8008 Z"/>
      </clipPath>
      <clipPath clipPathUnits="userSpaceOnUse" id="clipPath9">
        <path d="M547.7065 -181.3008 L547.7065 521.6992 L-97.2935 521.6992 L-97.2935 -181.3008 L547.7065 -181.3008 Z"/>
      </clipPath>
      <clipPath clipPathUnits="userSpaceOnUse" id="clipPath10">
        <path d="M547.7065 -265.3008 L547.7065 437.6992 L-97.2935 437.6992 L-97.2935 -265.3008 L547.7065 -265.3008 Z"/>
      </clipPath>
      <clipPath clipPathUnits="userSpaceOnUse" id="clipPath11">
        <path d="M547.7065 -349.3008 L547.7065 353.6992 L-97.2935 353.6992 L-97.2935 -349.3008 L547.7065 -349.3008 Z"/>
      </clipPath>
      <clipPath clipPathUnits="userSpaceOnUse" id="clipPath12">
        <path d="M611.7568 -555.6016 L611.7568 147.3984 L-33.2432 147.3984 L-33.2432 -555.6016 L611.7568 -555.6016 Z"/>
      </clipPath>
      <clipPath clipPathUnits="userSpaceOnUse" id="clipPath13">
        <path d="M-183.6758 687.5996 L-183.6758 -15.4004 L461.3242 -15.4004 L461.3242 687.5996 L-183.6758 687.5996 Z"/>
      </clipPath>
    </defs>
    <g fill="white" text-rendering="geometricPrecision" shape-rendering="geometricPrecision" transform="translate(-57,-1)" stroke="white">
      <rect x="57" width="703" height="645" y="1" clip-path="url(#clipPath2)" stroke="none"/>
    </g>
    <g text-rendering="geometricPrecision" stroke-miterlimit="1.45" shape-rendering="geometricPrecision" transform="matrix(1,0,0,1,-57,-1)" stroke-linecap="butt">
      <path fill="none" d="M72.4004 70.5 L107.5996 70.5 L107.5996 258.5 L72.4004 258.5 Z" clip-path="url(#clipPath2)"/>
    </g>
    <g font-size="18px" stroke-linecap="butt" transform="matrix(-0,-1,1,-0,20.4004,232.833)" text-rendering="geometricPrecision" font-family="sans-serif" shape-rendering="geometricPrecision" stroke-miterlimit="1.45">
      <text x="2" xml:space="preserve" y="19.4023" clip-path="url(#clipPath3)" stroke="none">Random Values</text>
    </g>
    <g font-size="18px" stroke-linecap="butt" transform="matrix(1,0,0,1,-57,-1)" text-rendering="geometricPrecision" font-family="sans-serif" shape-rendering="geometricPrecision" stroke-miterlimit="1.45">
      <text x="397.8047" xml:space="preserve" y="64.4023" clip-path="url(#clipPath2)" stroke="none">Generator</text>
    </g>
    <g text-rendering="geometricPrecision" stroke-miterlimit="1.45" stroke-dasharray="6,2" shape-rendering="geometricPrecision" transform="matrix(1,0,0,1,-57,-1)" stroke-linecap="butt">
      <rect x="199.5" y="45" clip-path="url(#clipPath2)" fill="none" width="287" rx="4" ry="4" height="239"/>
    </g>
    <g text-rendering="geometricPrecision" stroke-miterlimit="1.45" shape-rendering="geometricPrecision" transform="matrix(1,0,0,1,-57,-1)" stroke-linecap="butt">
      <path fill="none" d="M240.4004 65 L275.5996 65 L275.5996 253 L240.4004 253 Z" clip-path="url(#clipPath2)"/>
    </g>
    <g font-size="18px" stroke-linecap="butt" transform="matrix(-0,-1,1,-0,188.4004,191.7065)" text-rendering="geometricPrecision" font-family="sans-serif" shape-rendering="geometricPrecision" stroke-miterlimit="1.45">
      <text x="2" xml:space="preserve" y="19.4023" clip-path="url(#clipPath4)" stroke="none">Layer 1</text>
    </g>
    <g text-rendering="geometricPrecision" stroke-miterlimit="1.45" shape-rendering="geometricPrecision" transform="matrix(1,0,0,1,-57,-1)" stroke-linecap="butt">
      <path fill="none" d="M324.4004 65 L359.5996 65 L359.5996 253 L324.4004 253 Z" clip-path="url(#clipPath2)"/>
    </g>
    <g font-size="18px" stroke-linecap="butt" transform="matrix(-0,-1,1,-0,272.4004,191.7065)" text-rendering="geometricPrecision" font-family="sans-serif" shape-rendering="geometricPrecision" stroke-miterlimit="1.45">
      <text x="2" xml:space="preserve" y="19.4023" clip-path="url(#clipPath5)" stroke="none">Layer 2</text>
    </g>
    <g text-rendering="geometricPrecision" stroke-miterlimit="1.45" shape-rendering="geometricPrecision" transform="matrix(1,0,0,1,-57,-1)" stroke-linecap="butt">
      <path fill="none" d="M408.4004 65 L443.5996 65 L443.5996 253 L408.4004 253 Z" clip-path="url(#clipPath2)"/>
    </g>
    <g font-size="18px" stroke-linecap="butt" transform="matrix(-0,-1,1,-0,356.4004,191.7065)" text-rendering="geometricPrecision" font-family="sans-serif" shape-rendering="geometricPrecision" stroke-miterlimit="1.45">
      <text x="2" xml:space="preserve" y="19.4023" clip-path="url(#clipPath6)" stroke="none">Layer 3</text>
    </g>
    <g text-rendering="geometricPrecision" stroke-miterlimit="1.45" shape-rendering="geometricPrecision" transform="matrix(1,0,0,1,-57,-1)" stroke-linecap="butt">
      <path fill="none" d="M570.8008 70.5 L606 70.5 L606 258.5 L570.8008 258.5 Z" clip-path="url(#clipPath2)"/>
    </g>
    <g font-size="18px" stroke-linecap="butt" transform="matrix(-0,-1,1,-0,518.8008,239.5259)" text-rendering="geometricPrecision" font-family="sans-serif" shape-rendering="geometricPrecision" stroke-miterlimit="1.45">
      <text x="2" xml:space="preserve" y="19.4023" clip-path="url(#clipPath7)" stroke="none">Synthetic Sample</text>
    </g>
    <g text-rendering="geometricPrecision" stroke-miterlimit="1.45" shape-rendering="geometricPrecision" transform="matrix(1,0,0,1,-57,-1)" stroke-linecap="butt">
      <path fill="none" d="M82.8008 421 L118 421 L118 609 L82.8008 609 Z" clip-path="url(#clipPath2)"/>
    </g>
    <g font-size="18px" stroke-linecap="butt" transform="matrix(-0,-1,1,-0,30.8008,591.6255)" text-rendering="geometricPrecision" font-family="sans-serif" shape-rendering="geometricPrecision" stroke-miterlimit="1.45">
      <text x="2" xml:space="preserve" y="19.4023" clip-path="url(#clipPath8)" stroke="none">Observed Sample</text>
    </g>
    <g font-size="18px" stroke-linecap="butt" transform="matrix(1,0,0,1,-57,-1)" text-rendering="geometricPrecision" font-family="sans-serif" shape-rendering="geometricPrecision" stroke-miterlimit="1.45">
      <text x="342.5771" xml:space="preserve" y="411.4023" clip-path="url(#clipPath2)" stroke="none">Discriminator</text>
      <rect x="199.5" y="392" clip-path="url(#clipPath2)" fill="none" width="263" stroke-dasharray="6,2" rx="4" ry="4" height="239"/>
    </g>
    <g text-rendering="geometricPrecision" stroke-miterlimit="1.45" shape-rendering="geometricPrecision" transform="matrix(1,0,0,1,-57,-1)" stroke-linecap="butt">
      <path fill="none" d="M233.3008 421 L268.5 421 L268.5 609 L233.3008 609 Z" clip-path="url(#clipPath2)"/>
    </g>
    <g font-size="18px" stroke-linecap="butt" transform="matrix(-0,-1,1,-0,181.3008,547.7065)" text-rendering="geometricPrecision" font-family="sans-serif" shape-rendering="geometricPrecision" stroke-miterlimit="1.45">
      <text x="2" xml:space="preserve" y="19.4023" clip-path="url(#clipPath9)" stroke="none">Layer 1</text>
    </g>
    <g text-rendering="geometricPrecision" stroke-miterlimit="1.45" shape-rendering="geometricPrecision" transform="matrix(1,0,0,1,-57,-1)" stroke-linecap="butt">
      <path fill="none" d="M317.3008 421 L352.5 421 L352.5 609 L317.3008 609 Z" clip-path="url(#clipPath2)"/>
    </g>
    <g font-size="18px" stroke-linecap="butt" transform="matrix(-0,-1,1,-0,265.3008,547.7065)" text-rendering="geometricPrecision" font-family="sans-serif" shape-rendering="geometricPrecision" stroke-miterlimit="1.45">
      <text x="2" xml:space="preserve" y="19.4023" clip-path="url(#clipPath10)" stroke="none">Layer 2</text>
    </g>
    <g text-rendering="geometricPrecision" stroke-miterlimit="1.45" shape-rendering="geometricPrecision" transform="matrix(1,0,0,1,-57,-1)" stroke-linecap="butt">
      <path fill="none" d="M401.3008 421 L436.5 421 L436.5 609 L401.3008 609 Z" clip-path="url(#clipPath2)"/>
    </g>
    <g font-size="18px" stroke-linecap="butt" transform="matrix(-0,-1,1,-0,349.3008,547.7065)" text-rendering="geometricPrecision" font-family="sans-serif" shape-rendering="geometricPrecision" stroke-miterlimit="1.45">
      <text x="2" xml:space="preserve" y="19.4023" clip-path="url(#clipPath11)" stroke="none">Layer 3</text>
    </g>
    <g text-rendering="geometricPrecision" stroke-miterlimit="1.45" shape-rendering="geometricPrecision" transform="matrix(1,0,0,1,-57,-1)" stroke-linecap="butt">
      <path fill="none" d="M607.6016 402.5 L642.8008 402.5 L642.8008 627.5 L607.6016 627.5 Z" clip-path="url(#clipPath2)"/>
    </g>
    <g font-size="18px" stroke-linecap="butt" transform="matrix(-0,-1,1,-0,555.6016,611.7568)" text-rendering="geometricPrecision" font-family="sans-serif" shape-rendering="geometricPrecision" stroke-miterlimit="1.45">
      <text x="2" xml:space="preserve" y="19.4023" clip-path="url(#clipPath12)" stroke="none">Real or Synthetic Data</text>
    </g>
    <g text-rendering="geometricPrecision" stroke-miterlimit="1.45" shape-rendering="geometricPrecision" transform="matrix(1,0,0,1,-57,-1)" stroke-linecap="butt">
      <path fill="none" d="M107.5729 164.5 L191.5079 164.5" clip-path="url(#clipPath2)"/>
      <path d="M199.5079 164.5 L187.5079 159.5 L190.5079 164.5 L187.5079 169.5 Z" clip-path="url(#clipPath2)" stroke="none"/>
      <path fill="none" d="M275.5957 159 L316.3938 159" clip-path="url(#clipPath2)"/>
      <path d="M324.3938 159 L312.3938 154 L315.3938 159 L312.3938 164 Z" clip-path="url(#clipPath2)" stroke="none"/>
      <path fill="none" d="M359.5957 159 L400.3938 159" clip-path="url(#clipPath2)"/>
      <path d="M408.3938 159 L396.3938 154 L399.3938 159 L396.3938 164 Z" clip-path="url(#clipPath2)" stroke="none"/>
      <path fill="none" d="M486.5197 164.5 L562.8399 164.5" clip-path="url(#clipPath2)"/>
      <path d="M570.8399 164.5 L558.8399 159.5 L561.8399 164.5 L558.8399 169.5 Z" clip-path="url(#clipPath2)" stroke="none"/>
      <path fill="none" d="M117.9937 514.733 L191.5101 513.6171" clip-path="url(#clipPath2)"/>
      <path d="M199.5092 513.4957 L187.4347 508.6784 L190.5102 513.6323 L187.5865 518.6772 Z" clip-path="url(#clipPath2)" stroke="none"/>
      <path fill="none" d="M588.4004 258.5215 L588.4004 312 L141 312 L141 511.5 L191.4937 511.5" clip-path="url(#clipPath2)"/>
      <path d="M199.4937 511.5 L187.4937 506.5 L190.4937 511.5 L187.4937 516.5 Z" clip-path="url(#clipPath2)" stroke="none"/>
      <path fill="none" d="M268.4961 515 L309.2942 515" clip-path="url(#clipPath2)"/>
      <path d="M317.2942 515 L305.2942 510 L308.2942 515 L305.2942 520 Z" clip-path="url(#clipPath2)" stroke="none"/>
      <path fill="none" d="M352.4961 515 L393.2942 515" clip-path="url(#clipPath2)"/>
      <path d="M401.2942 515 L389.2942 510 L392.2942 515 L389.2942 520 Z" clip-path="url(#clipPath2)" stroke="none"/>
      <path fill="none" d="M462.4783 513.0641 L599.6025 514.6954" clip-path="url(#clipPath2)"/>
      <path d="M607.602 514.7906 L595.6624 509.6482 L598.6026 514.6835 L595.5433 519.6475 Z" clip-path="url(#clipPath2)" stroke="none"/>
      <rect x="503.1372" y="501.3279" clip-path="url(#clipPath2)" fill="white" width="63.8271" height="25.1992" stroke="none"/>
      <text x="505.1372" font-size="18px" y="520.7302" clip-path="url(#clipPath2)" font-family="sans-serif" stroke="none" xml:space="preserve">Predict</text>
      <path fill="none" d="M642.8013 515 L732 515 L732 16 L343 16 L343 36.9677" clip-path="url(#clipPath2)"/>
      <path d="M343 44.9677 L348 32.9677 L343 35.9677 L338 32.9677 Z" clip-path="url(#clipPath2)" stroke="none"/>
    </g>
    <g stroke-linecap="butt" transform="matrix(0,1,-1,0,687.5996,183.6758)" fill="white" text-rendering="geometricPrecision" shape-rendering="geometricPrecision" stroke="white" stroke-miterlimit="1.45">
      <rect x="0" width="224.7812" height="25.1992" y="0" clip-path="url(#clipPath13)" stroke="none"/>
    </g>
    <g font-size="18px" stroke-linecap="butt" transform="matrix(0,1,-1,0,687.5996,183.6758)" text-rendering="geometricPrecision" font-family="sans-serif" shape-rendering="geometricPrecision" stroke-miterlimit="1.45">
      <text x="2" xml:space="preserve" y="19.4023" clip-path="url(#clipPath13)" stroke="none">Error to Adjust Generator</text>
    </g>
  </g>
</svg>
