<?xml version="1.0" encoding="UTF-8"?><svg xmlns="http://www.w3.org/2000/svg" xmlns:xlink="http://www.w3.org/1999/xlink" fill-opacity="1" color-rendering="auto" color-interpolation="auto" text-rendering="auto" stroke="black" stroke-linecap="square" width="842" stroke-miterlimit="10" shape-rendering="auto" stroke-opacity="1" fill="black" stroke-dasharray="none" font-weight="normal" stroke-width="1" height="432" font-family="'Dialog'" font-style="normal" stroke-linejoin="miter" font-size="12px" stroke-dashoffset="0" image-rendering="auto">
  <!--Generated by ySVG 2.6-->
  <defs id="genericDefs"/>
  <g>
    <defs id="defs1">
      <clipPath clipPathUnits="userSpaceOnUse" id="clipPath1">
        <path d="M0 0 L842 0 L842 432 L0 432 L0 0 Z"/>
      </clipPath>
      <clipPath clipPathUnits="userSpaceOnUse" id="clipPath2">
        <path d="M68 114 L910 114 L910 546 L68 546 L68 114 Z"/>
      </clipPath>
      <clipPath clipPathUnits="userSpaceOnUse" id="clipPath3">
        <path d="M205.7383 -18.1963 L205.7383 823.8037 L-226.2617 823.8037 L-226.2617 -18.1963 L205.7383 -18.1963 Z"/>
      </clipPath>
      <clipPath clipPathUnits="userSpaceOnUse" id="clipPath4">
        <path d="M392.0737 -18.1963 L392.0737 823.8037 L-39.9263 823.8037 L-39.9263 -18.1963 L392.0737 -18.1963 Z"/>
      </clipPath>
    </defs>
    <g fill="white" text-rendering="geometricPrecision" shape-rendering="geometricPrecision" transform="translate(-68,-114)" stroke="white">
      <rect x="68" width="842" height="432" y="114" clip-path="url(#clipPath2)" stroke="none"/>
    </g>
    <g text-rendering="geometricPrecision" stroke-miterlimit="1.45" shape-rendering="geometricPrecision" transform="matrix(1,0,0,1,-68,-114)" stroke-linecap="butt">
      <rect fill="none" x="83.1963" width="810.9033" height="402" y="129" clip-path="url(#clipPath2)"/>
      <rect fill="none" x="107.1963" width="204.9033" height="372" y="159" clip-path="url(#clipPath2)"/>
      <rect fill="none" x="312.0996" width="582" height="372" y="159" clip-path="url(#clipPath2)"/>
      <rect fill="none" x="83.1963" width="810.9033" height="169" y="183" clip-path="url(#clipPath2)"/>
      <rect fill="none" x="83.1963" width="810.9033" height="179" y="352" clip-path="url(#clipPath2)"/>
    </g>
    <g font-size="18px" stroke-linecap="butt" transform="matrix(1,0,0,1,-68,-114)" text-rendering="geometricPrecision" font-family="sans-serif" shape-rendering="geometricPrecision" stroke-miterlimit="1.45">
      <text x="379.0483" xml:space="preserve" y="152.4023" clip-path="url(#clipPath2)" stroke="none">Shallow Learning Process</text>
    </g>
    <g font-size="18px" stroke-linecap="butt" transform="matrix(-0,-1,1,-0,18.1963,205.7383)" text-rendering="geometricPrecision" font-family="sans-serif" shape-rendering="geometricPrecision" stroke-miterlimit="1.45">
      <text x="2" xml:space="preserve" y="19.4023" clip-path="url(#clipPath3)" stroke="none">Actual Data</text>
    </g>
    <g font-size="18px" stroke-linecap="butt" transform="matrix(-0,-1,1,-0,18.1963,392.0737)" text-rendering="geometricPrecision" font-family="sans-serif" shape-rendering="geometricPrecision" stroke-miterlimit="1.45">
      <text x="2" xml:space="preserve" y="19.4023" clip-path="url(#clipPath4)" stroke="none">Synthetic Data</text>
    </g>
    <g font-size="18px" stroke-linecap="butt" transform="matrix(1,0,0,1,-68,-114)" text-rendering="geometricPrecision" font-family="sans-serif" shape-rendering="geometricPrecision" stroke-miterlimit="1.45">
      <text x="152.3477" xml:space="preserve" y="181.4023" clip-path="url(#clipPath2)" stroke="none">First Variable</text>
      <text x="514.2114" xml:space="preserve" y="181.4023" clip-path="url(#clipPath2)" stroke="none">Remaining Variables</text>
    </g>
    <g text-rendering="geometricPrecision" stroke-miterlimit="1.45" shape-rendering="geometricPrecision" transform="matrix(1,0,0,1,-68,-114)" stroke-linecap="butt">
      <ellipse rx="65.1177" fill="none" ry="35" clip-path="url(#clipPath2)" cx="203.4707" cy="260.5"/>
      <text x="145.353" font-size="18px" y="256.7031" clip-path="url(#clipPath2)" font-family="sans-serif" stroke="none" xml:space="preserve">Sample from </text>
      <text x="183.4229" font-size="18px" y="277.9023" clip-path="url(#clipPath2)" font-family="sans-serif" stroke="none" xml:space="preserve">Data</text>
    </g>
    <g text-rendering="geometricPrecision" stroke-miterlimit="1.45" shape-rendering="geometricPrecision" transform="matrix(1,0,0,1,-68,-114)" stroke-linecap="butt">
      <ellipse rx="69.7056" fill="none" ry="38.5" clip-path="url(#clipPath2)" cx="203.4707" cy="437"/>
      <text x="140.7651" font-size="18px" y="433.2031" clip-path="url(#clipPath2)" font-family="sans-serif" stroke="none" xml:space="preserve">Samples from </text>
      <text x="145.9287" font-size="18px" y="454.4023" clip-path="url(#clipPath2)" font-family="sans-serif" stroke="none" xml:space="preserve">Original Data</text>
    </g>
    <g text-rendering="geometricPrecision" stroke-miterlimit="1.45" shape-rendering="geometricPrecision" transform="matrix(1,0,0,1,-68,-114)" stroke-linecap="butt">
      <path fill="none" d="M425.812 222 L682.188 222 L682.188 299 L425.812 299 Z" clip-path="url(#clipPath2)"/>
      <text x="462.4531" font-size="18px" y="256.7031" clip-path="url(#clipPath2)" font-family="sans-serif" stroke="none" xml:space="preserve">Predict Next Variable</text>
      <text x="432.812" font-size="18px" y="277.9023" clip-path="url(#clipPath2)" font-family="sans-serif" stroke="none" xml:space="preserve">Using All Previous Variables</text>
    </g>
    <g text-rendering="geometricPrecision" stroke-miterlimit="1.45" shape-rendering="geometricPrecision" transform="matrix(1,0,0,1,-68,-114)" stroke-linecap="butt">
      <path fill="none" d="M377.7085 398.5 L730.2915 398.5 L730.2915 475.5 L377.7085 475.5 Z" clip-path="url(#clipPath2)"/>
      <text x="436.2705" font-size="18px" y="422.6035" clip-path="url(#clipPath2)" font-family="sans-serif" stroke="none" xml:space="preserve">Project New Variable From </text>
      <text x="393.2085" font-size="18px" y="443.8027" clip-path="url(#clipPath2)" font-family="sans-serif" stroke="none" xml:space="preserve">Model Above with Existing Synthetic </text>
      <text x="533.9521" font-size="18px" y="465.002" clip-path="url(#clipPath2)" font-family="sans-serif" stroke="none" xml:space="preserve">Data</text>
    </g>
    <g text-rendering="geometricPrecision" stroke-miterlimit="1.45" shape-rendering="geometricPrecision" transform="matrix(1,0,0,1,-68,-114)" stroke-linecap="butt">
      <path fill="none" d="M203.4707 295.5328 L203.4707 390.4903" clip-path="url(#clipPath2)"/>
    </g>
    <g text-rendering="geometricPrecision" stroke-miterlimit="1.45" shape-rendering="geometricPrecision" transform="matrix(1,0,0,1,-68,-114)" stroke-linecap="butt">
      <path d="M203.4707 398.4903 L208.4707 386.4903 L203.4707 389.4903 L198.4707 386.4903 Z" stroke="none" clip-path="url(#clipPath2)"/>
      <rect x="195.7798" y="319.005" clip-path="url(#clipPath2)" fill="white" width="15.3818" height="25.1992" stroke="none"/>
      <text x="197.7798" font-size="18px" y="338.4073" clip-path="url(#clipPath2)" font-family="sans-serif" stroke="none" xml:space="preserve">1</text>
      <path fill="none" d="M268.5531 260.5 L417.8068 260.5" clip-path="url(#clipPath2)"/>
      <path d="M425.8068 260.5 L413.8068 255.5 L416.8068 260.5 L413.8068 265.5 Z" clip-path="url(#clipPath2)" stroke="none"/>
      <rect x="339.5093" y="247.9004" clip-path="url(#clipPath2)" fill="white" width="15.3818" height="25.1992" stroke="none"/>
      <text x="341.5093" font-size="18px" y="267.3027" clip-path="url(#clipPath2)" font-family="sans-serif" stroke="none" xml:space="preserve">2</text>
      <path fill="none" d="M249.5782 408.1019 L419.0065 301.9118" clip-path="url(#clipPath2)"/>
      <path d="M425.7852 297.6632 L412.9619 299.7994 L418.1592 302.4428 L418.2726 308.2727 Z" clip-path="url(#clipPath2)" stroke="none"/>
      <rect x="359.7598" y="321.625" clip-path="url(#clipPath2)" fill="white" width="15.3818" height="25.1992" stroke="none"/>
      <text x="361.7598" font-size="18px" y="341.0274" clip-path="url(#clipPath2)" font-family="sans-serif" stroke="none" xml:space="preserve">3</text>
      <path fill="none" d="M554 298.9801 L554 390.4852" clip-path="url(#clipPath2)"/>
      <path d="M554 398.4852 L559 386.4852 L554 389.4852 L549 386.4852 Z" clip-path="url(#clipPath2)" stroke="none"/>
      <rect x="546.3091" y="322.6356" clip-path="url(#clipPath2)" fill="white" width="15.3818" height="25.1992" stroke="none"/>
      <text x="548.3091" font-size="18px" y="342.038" clip-path="url(#clipPath2)" font-family="sans-serif" stroke="none" xml:space="preserve">4</text>
    </g>
  </g>
</svg>
